<svg width="46" height="69" fill="none" xmlns="http://www.w3.org/2000/svg"><path d="M.5 61.8c0 1 .7 1.7 1.7 1.7H12c1 0 1.8-.7 1.8-1.7V6.7c0-1-.8-1.8-1.8-1.8H2.2c-1 0-1.7.8-1.7 1.8v55z" fill="#63D2C1"/><path fill-rule="evenodd" clip-rule="evenodd" d="M16.9.5c.3-.3.8-.4 1.2-.3L43.7 5c1 .2 1.7 1 1.8 2v54.7c-.1 1-.8 1.9-1.8 2l-25.6 4.7a1.4 1.4 0 01-1.7-1.5V1.7c0-.5.1-.9.5-1.2zM40.5 61c1-.2 1.7-1 1.7-2V9.6c0-1-.7-1.9-1.7-2L21.3 4a1.4 1.4 0 00-1.7 1.4V63a1.4 1.4 0 001.7 1.5L40.5 61z" fill="#63D2C1"/><path d="M24.7 34.3A1.8 1.8 0 1123 32a2 2 0 011.7 2.3z" fill="#63D2C1"/></svg>