<svg width="32" height="22" fill="none" xmlns="http://www.w3.org/2000/svg"><path fill-rule="evenodd" clip-rule="evenodd" d="M31.2 3.6a2.5 2.5 0 00-.6-1.7c-.5-.6-1.2-.8-1.9-.8h-25c-.6 0-1.3.2-1.8.7V2c-.4.4-.7 1-.7 1.7v14.6A2.5 2.5 0 002 20c.5.5 1.2.7 1.9.7h25c.6 0 1.2-.2 1.7-.7.5-.5.7-1.1.7-1.8V3.6zM21.4 10L30.1 3V18.8L21.4 10zm7.3-8l.6.1-13 10.9L3 2.2l.7-.1h25zM2.4 18.8l-.1-.6V3.6l.1-.6 8.7 7.1-8.7 8.7zm1.4.9c-.3 0-.5 0-.7-.2l8.8-8.7 4 3.3c.2.2.5.2.7 0l4-3.3 8.8 8.7-.7.2h-25z" fill="#F9572E"/><path d="M31.2 3.6h.4-.4zm-.6-1.7l-.3.2.3-.2zm0 0l.3-.1v-.1l-.3.2zm0 0l-.3.2.2-.3zM28.6 1v.3-.3zm-25 0V.7v.4zM2 1.8l.3.3-.3-.3zm0 0l.3.3-.3-.2zM2 2l.2.2h.1V2L2 1.9zm-.7 1.7H1h.3zm0 14.6H1h.3zM2 20l.3-.1v-.1l-.3.2zm0 0l-.2.3.2-.2zm0 0l-.3.2.1.1.2-.2zm1.9.8v-.3.3zm25 0v.4-.4zm1.7-.7l-.1-.3h-.1l.2.3zm0 0l.2.3v-.1l-.2-.2zm0 0l.3.2-.3-.3zm.7-1.8h.4-.4zm-9.8-8l-.2-.3-.3.2.3.3.2-.3zM30.1 3l.3-.2-.2-.4-.4.3.3.3zm0 .6h.4-.3zm0 14.6h.4-.3zm0 .6l-.3.2.4.4.2-.5-.3-.1zM28.7 2v-.4.4zm.6.1l.2.3.5-.4-.5-.2-.2.3zm-13 10.9l-.3.2.2.2.3-.2-.3-.2zM3 2.2L3 2l-.5.2.4.4.2-.3zm.7-.1v-.4.4zM2.4 18.8l-.3.1.2.5.3-.4-.2-.2zm-.1-.6h-.4.4zm0-14.6h-.4.4zm.1-.6l.2-.3-.3-.3-.2.4.3.2zm8.7 7.1l.2.3.3-.3-.3-.2-.2.2zm-7.3 9.6v.4-.4zm-.7-.2l-.3-.2-.3.3.4.3.2-.4zm8.8-8.7l.2-.3-.3-.2-.2.2.3.3zm4 3.3l.2-.2-.2.2zm.7 0l-.3-.2.3.2zm4-3.3l.3-.3-.3-.2-.2.2.2.3zm8.8 8.7l.1.4.5-.3-.4-.3-.2.2zm-.7.2v.4-.4zm2.9-16.1c0-.8-.3-1.4-.8-2l-.5.5c.4.4.6 1 .6 1.5h.7zm-.8-2v.2l-.6.2.1.1.5-.4zm0 0l-.5.5.5-.5zm0 0c-.6-.6-1.3-.9-2-.9v.7c.5 0 1 .3 1.5.7l.5-.5zm-2-.9h-25v.7h25V.7zm-25 0c-.8 0-1.6.3-2.1 1l.5.4c.4-.4 1-.7 1.6-.7V.7zm-2.1.9a.4.4 0 00-.1.1l.6.3v.1l-.5-.5zm0 0l-.1.2.6.2-.6-.4zm0 0c-.5.6-.8 1.2-.8 2h.7c0-.6.2-1 .5-1.5l-.5-.4zm-.8 2v14.6h.7V3.6H.9zm0 14.6c0 .8.3 1.5.8 2l.5-.5c-.4-.4-.6-1-.6-1.5H.9zm.7 1.9l.6-.4-.6.4zm0 .1a.4.4 0 00.2 0 .3.3 0 01-.2 0l.7-.4a.4.4 0 00-.2-.2v.1l-.4.5zm.1 0c.5.6 1.3.9 2 .9v-.7c-.5 0-1-.3-1.5-.7l-.5.5zm2 .9h25v-.7h-25v.7zm25 0c.8 0 1.5-.3 2-.9l-.4-.5c-.4.4-1 .7-1.6.7v.7zm2-.8l-.3-.6.3.6zm0-.1a.4.4 0 00.1 0l-.5-.5.5.5zm.1 0c.5-.5.8-1.2.8-2h-.7c0 .6-.2 1.1-.6 1.5l.5.5zm.8-2V3.6h-.7v14.6h.7zm-10-7.8l8.7-7.2-.5-.5-8.6 7.2.4.5zM29.7 3l.1.5h.7l-.1-.8-.7.3zm.1.5v14.6h.7V3.6h-.7zm0 14.6v.5l.6.2.1-.7h-.7zm.5.3L21.7 10l-.5.5 8.6 8.6.5-.5zm-1.6-16h.5l.3-.6-.8-.2v.7zm.4-.5l-13 10.8.4.5 13-10.8-.4-.5zM16.5 12.8L3.4 2l-.5.5L16 13.3l.5-.5zM3.3 2.5h.5v-.8L3 2l.3.6zm.5 0h25v-.8h-25v.7zm-1 16.2l-.2-.5H2c0 .3 0 .5.2.7l.6-.2zm-.2-.5V3.6H2v14.6h.7zm0-14.6l.1-.5-.6-.3-.2.8h.7zm-.4-.4l8.6 7.2.5-.5-8.7-7.2-.4.5zm8.6 6.7l-8.7 8.6.5.5 8.7-8.6-.5-.5zm-7 9.5c-.2 0-.4 0-.6-.2L3 20l.9.2v-.7zm-.5.4l8.8-8.8-.5-.5-8.8 8.8.5.5zm8.3-8.7l4 3.3.5-.5-4-3.4-.5.6zm4 3.3c.4.3.9.3 1.2 0l-.5-.5h-.2l-.4.5zm1.2 0l4-3.3-.4-.6-4 3.4.4.5zm3.6-3.4l8.7 8.8.5-.5-8.7-8.8-.5.5zm8.8 8.2l-.5.2v.7l.8-.2-.3-.7zm-.5.2h-25v.7h25v-.7z" fill="#F9572E"/></svg>