<svg xmlns="http://www.w3.org/2000/svg" viewBox="0 0 256 256"><circle cx="128" cy="357.3" r="120" fill="none" stroke="#f9572e" stroke-width="16" stroke-miterlimit="15.1181" transform="translate(0 -229.26665)"/><path d="M111.9 147.1c-1.7-1.7-4.5-1.7-6.2 0l-36 36v-24.4c0-2.4-2-4.4-4.4-4.4-2.4 0-4.4 2-4.4 4.4v35c0 2.4 2 4.4 4.4 4.4h35c2.4 0 4.4-2 4.4-4.4s-2-4.4-4.4-4.4H75.8l36-36c1.8-1.7 1.8-4.5.1-6.2zm38.2 0c1.7-1.7 4.5-1.7 6.2 0l36 36v-24.4c0-2.4 2-4.4 4.4-4.4 2.4 0 4.4 2 4.4 4.4v35c0 2.4-2 4.4-4.4 4.4h-35c-2.4 0-4.4-2-4.4-4.4s2-4.4 4.4-4.4h24.4l-36-36c-1.7-1.7-1.7-4.5 0-6.2zm0-38.2c1.7 1.7 4.5 1.7 6.2 0l36-36v24.4c0 2.4 2 4.4 4.4 4.4 2.4 0 4.4-2 4.4-4.4v-35c0-2.4-2-4.4-4.4-4.4h-35c-2.4 0-4.4 2-4.4 4.4s2 4.4 4.4 4.4h24.4l-36 36c-1.7 1.7-1.7 4.5 0 6.2zm-38.2 0c-1.7 1.7-4.5 1.7-6.2 0l-36-36v24.4c0 2.4-2 4.4-4.4 4.4-2.4 0-4.4-2-4.4-4.4v-35c0-2.4 2-4.4 4.4-4.4h35c2.4 0 4.4 2 4.4 4.4s-2 4.4-4.4 4.4H75.8l36 36c1.8 1.7 1.8 4.5.1 6.2z" fill-rule="evenodd" clip-rule="evenodd" fill="#f9572e"/></svg>