<svg version="1.1" id="Слой_1" xmlns="http://www.w3.org/2000/svg" x="0" y="0" viewBox="0 0 51 153" xml:space="preserve"><style>.st1{fill-rule:evenodd;clip-rule:evenodd;fill:#fff}</style><path fill="#f9572e" d="M0 102h51v51H0z"/><path class="st1" d="M18.2 116.7h17.1c.8 0 1.5.3 2.1.8.6.6.9 1.3.8 2.1v17.1c0 .8-.3 1.5-.8 2.1-.6.6-1.3.9-2.1.8H18.2c-.8 0-1.5-.3-2.1-.8-.6-.6-.9-1.3-.8-2.1v-17.1c0-.8.3-1.5.8-2.1.6-.5 1.4-.8 2.1-.8zm13.8 2.6a1 1 0 00-1 1v2.5c0 .6.5 1 1 1h2.6c.6 0 1-.5 1-1v-2.5c0-.6-.5-1-1-1H32zm3.7 7.1h-2c.2.6.3 1.3.3 2-.1 3.9-3.3 6.9-7.1 6.9s-7-3.1-7.1-6.9c0-.7.1-1.3.3-2H18v9.7c0 .5.4.9.9.9h16c.5 0 .9-.4.9-.9v-9.7zm-8.9-2.7c-2.4.1-4.4 2.1-4.3 4.6a4.6 4.6 0 004.5 4.4c2.4 0 4.4-2 4.4-4.5s-2.1-4.5-4.6-4.5z"/><path fill="#33b5a3" d="M0 0h51v51H0z"/><path class="st1" d="M18.2 14.7h17.1c.8 0 1.5.3 2.1.8.6.6.9 1.3.8 2.1v17.1c0 .8-.3 1.5-.8 2.1-.6.6-1.3.9-2.1.8H18.2c-.8 0-1.5-.3-2.1-.8-.6-.6-.9-1.3-.8-2.1v-17c0-.8.3-1.5.8-2.1.6-.6 1.4-.9 2.1-.9zM32 17.3a1 1 0 00-1 1v2.5c0 .6.5 1 1 1h2.6c.6 0 1-.5 1-1v-2.5c0-.6-.5-1-1-1H32zm3.7 7.1h-2c.2.6.3 1.3.3 2-.1 3.9-3.3 6.9-7.1 6.9s-7-3.1-7.1-6.9c0-.7.1-1.3.3-2H18v9.7c0 .5.4.9.9.9h16c.5 0 .9-.4.9-.9v-9.7zm-8.9-2.7c-2.4.1-4.4 2.1-4.3 4.6a4.6 4.6 0 004.5 4.4c2.4 0 4.4-2 4.4-4.5s-2.1-4.5-4.6-4.5z"/></svg>