<svg width="200" height="55" viewBox="0 0 200 55" fill="none" xmlns="http://www.w3.org/2000/svg"><path d="M106.15 9.3L94.95.26 72.77 18.1 61.08 8.7l-11.2 9.02 22.87 18.41.02-.01.03.02L106.15 9.3z" fill="url(#paint0_linear)"/><path d="M72.77 54.59L49.88 36.1V17.7l22.9 18.4v18.48z" fill="url(#paint1_linear)"/><path d="M106.15 27.78l-33.38 26.8V36.12l33.38-26.8v18.47z" fill="url(#paint2_linear)"/><path d="M0 18.37h10.54v2.9H3.25v4.1h6.77v2.9H3.25V35H0V18.37zM13.53 32.1h4.2V21.26h-4.2v-2.9h11.68v2.9H21v10.82h4.22V35H13.53v-2.9zM32.3 26.47l-4.7-8.1h3.8l2.43 4.51.54 1.21.53-1.2 2.47-4.52h3.67l-4.77 8.12L41.2 35h-3.8l-2.54-4.75-.64-1.28-.62 1.28L30.93 35h-3.68l5.06-8.52z" fill="#231F20"/><path fill-rule="evenodd" clip-rule="evenodd" d="M116.47 18.24c-.8.07-1.53.17-2.2.3v16.45h3.26v-5.72l.4.05a11.6 11.6 0 001.1.04h.38c.8 0 1.6-.1 2.38-.32.75-.2 1.44-.55 2.06-1.02a5.17 5.17 0 001.99-4.38 5.55 5.55 0 00-.63-2.81 4.69 4.69 0 00-1.63-1.69 6.19 6.19 0 00-2.24-.8c-.82-.14-1.65-.2-2.48-.2-.8 0-1.59.03-2.39.1zm1.75 2.73c.28-.02.59-.03.9-.03.4 0 .81.04 1.21.11.38.08.74.22 1.06.43a2.34 2.34 0 011.03 2.11c.02.52-.08 1.03-.3 1.5-.18.36-.45.67-.8.9-.33.2-.72.36-1.12.43a6.8 6.8 0 01-1.27.12h-.3a7.2 7.2 0 01-1.1-.1v-5.39c.17-.03.4-.05.69-.08z" fill="#231F20"/><path d="M128.45 18.37h10.9v2.9h-7.65v3.87h7.05v2.9h-7.05v4.05h7.77V35h-11.02V18.37zM151.55 26.14l.12-2.6h-.14l-2.66 4.35h-.57l-2.78-4.34h-.12l.14 2.32V35h-3.08V18.37h3.3l2.84 4.6h.1l2.83-4.6h3.27V35h-3.25v-8.85z" fill="#231F20"/><path fill-rule="evenodd" clip-rule="evenodd" d="M157.7 23.05c-.27 1.2-.4 2.41-.38 3.63-.01 1.17.1 2.34.33 3.5.19.96.55 1.89 1.08 2.72a5.26 5.26 0 001.95 1.78c.9.45 1.9.67 2.9.64a5.3 5.3 0 004.72-2.29 11.2 11.2 0 001.55-6.35c.01-1.17-.1-2.34-.34-3.49-.2-.97-.57-1.9-1.1-2.73a5.28 5.28 0 00-1.93-1.78 6.8 6.8 0 00-5.66-.05c-.78.4-1.46.98-1.96 1.7a7.72 7.72 0 00-1.16 2.72zm3.14 5.89c-.07-.75-.1-1.5-.1-2.26a11.9 11.9 0 01.59-4.3 2.22 2.22 0 012.25-1.44c.55-.03 1.09.13 1.52.46.4.33.7.76.87 1.25.21.58.34 1.2.38 1.82a27.6 27.6 0 01-.05 4.76 5.98 5.98 0 01-.46 1.8c-.18.43-.49.8-.88 1.05-.42.25-.9.36-1.38.35a2.29 2.29 0 01-1.48-.45 2.84 2.84 0 01-.85-1.23 7.11 7.11 0 01-.4-1.81z" fill="#231F20"/><path d="M181.22 28.03h-5.36V35h-3.26V18.37h3.26v6.77h5.36v-6.77h3.25V35h-3.25v-6.96zM189.18 32.38h2.7v-11.4h-2.28v2.88H187v-5.49h13v5.49h-2.61v-2.88h-2.26v11.4h2.69v2.61h-8.64v-2.61z" fill="#231F20"/><defs><linearGradient id="paint0_linear" x1="49.86" y1=".08" x2="49.77" y2="36.09" gradientUnits="userSpaceOnUse"><stop stop-color="#E07053"/><stop offset="1" stop-color="#FF8363"/></linearGradient><linearGradient id="paint1_linear" x1="38.04" y1="45.21" x2="79.36" y2="69.81" gradientUnits="userSpaceOnUse"><stop stop-color="#FF6640"/><stop offset="1" stop-color="#D94B27"/></linearGradient><linearGradient id="paint2_linear" x1="79.29" y1="-11.96" x2="28.36" y2="31.74" gradientUnits="userSpaceOnUse"><stop stop-color="#EB4015"/><stop offset="1" stop-color="#D94B27"/></linearGradient></defs></svg>