<svg version="1.1" id="svg996" xmlns="http://www.w3.org/2000/svg" x="0" y="0" viewBox="0 0 256 256" xml:space="preserve"><style>.st2{fill:#f9572e}</style><g id="layer1" transform="translate(0 -229.26665)"><circle cx="128" cy="357.3" r="120" fill="none" stroke="#f9572e" stroke-width="16" stroke-miterlimit="15.1181" id="XMLID_1_"/></g><path class="st2" d="M205.2 195.1L60.4 50.3c-2.7-2.7-7-2.7-9.7 0s-2.7 7 0 9.7l144.8 144.8c2.7 2.7 7 2.7 9.7 0s2.7-7.1 0-9.7zM187.4 170.3V71.9c0-12.2-2.4-17.2-12.9-11l-60.2 36.3 73.1 73.1zM81.6 97.8h-8.1c-2.7 0-5 2.2-5 5v49.5c0 2.7 2.2 5 5 5h41.8l59.2 37c2.4 1.4 4.4 2.2 6 2.5l-98.9-99z"/><path class="st2" d="M205.2 195.1L60.4 50.3c-2.7-2.7-7-2.7-9.7 0s-2.7 7 0 9.7l144.8 144.8c2.7 2.7 7 2.7 9.7 0s2.7-7.1 0-9.7z"/></svg>