<svg width="26" height="26" fill="none" xmlns="http://www.w3.org/2000/svg"><path fill-rule="evenodd" clip-rule="evenodd" d="M25 13.43C25 6.57 19.43 1.01 12.57 1a.67.67 0 000 1.34 11.1 11.1 0 0111.09 11.1.67.67 0 001.34 0zm-6.24 11.55a11.07 11.07 0 01-3.32-.58c-3.18-1.13-6.05-3-8.37-5.45C2.86 14.73 1.04 11.49 1 8.1a.67.67 0 01.66-.68h.01c.37 0 .67.3.67.66.04 3 1.74 5.97 5.68 9.92 6.04 6.04 10.83 5.65 11.08 5.62a5.02 5.02 0 002.54-1.06l.82-.8c.43-.41.45-1.1.04-1.53l-3.36-3.36a1.08 1.08 0 00-1.53.04l-1.7 1.7a.67.67 0 01-.8.11l-.33-.19a16.55 16.55 0 01-7.3-7.29l-.03-.06-.14-.26a.67.67 0 01.1-.8l1.7-1.7c.43-.41.45-1.1.05-1.53L5.79 3.52a1 1 0 00-.74-.29c-.3 0-.57.13-.78.33l-.9.95c-.16.22-.3.45-.44.7a.67.67 0 01-1.19-.62 6.01 6.01 0 01.64-.98l.92-.98.02-.01a2.47 2.47 0 011.7-.73c.65-.02 1.27.23 1.72.68l3.37 3.37c.93.96.9 2.49-.05 3.42L8.72 10.7a15.13 15.13 0 006.6 6.6l1.34-1.34a2.43 2.43 0 013.42-.04l3.37 3.36c.93.96.91 2.5-.04 3.43l-.97.95a.67.67 0 01-.23.14 6.13 6.13 0 01-2.96 1.15l-.49.03zM13.08 5.36a7.56 7.56 0 017.56 7.56.67.67 0 11-1.35 0c0-3.43-2.78-6.21-6.2-6.21a.67.67 0 010-1.35z" fill="#F9572E"/><path d="M12.57 1V.75 1zM25 13.43h.25H25zM12.57 2.34V2.1v.25zm11.09 11.1h.25-.25zm.33.57l-.12.22.12-.22zm.67 0l-.12-.21.12.21zM15.44 24.4l-.08.23.08-.23zm3.32.58v.25-.25zM7.07 18.95l.19-.17h-.01l-.18.17zM1 8.1h.25H1zm.2-.48L1 7.45l.18.17zm.46-.2v-.25.25zm.01 0v-.25.25zm.67.66h.25-.25zM8.02 18l.18-.18-.18.18zm11.08 5.62l.02.25-.02-.25zm1.23-.3l-.09-.24.1.23zm1.2-.69l.16.2-.15-.2zm.1-.07l.12.23.04-.02.02-.03-.17-.18zm.83-.8l-.17-.18.17.18zm.04-1.53l.18-.17-.18.17zm-3.36-3.36l.17-.18-.17.18zm-1.53.04l.18.18-.18-.18zm-1.7 1.7l.18.18-.17-.18zm-.8.11l-.11.22.12-.22zm-.33-.19l.12-.21-.12.21zm-7.3-7.29l.23-.1v-.02l-.22.12zm-.03-.06l-.21.12.21-.12zm-.14-.26l.21-.13-.21.13zm.1-.8l.18.17-.18-.18zm1.7-1.7l-.17-.19.17.19zm.05-1.53l.18-.17-.18.17zM5.79 3.52l.18-.17-.18.17zm-.74-.29v.25-.25zm-.78.33L4.1 3.4h-.01l.18.17zm-.9.95l-.17-.17h-.01v.02l.19.15zm-.44.7l.23.11-.23-.11zm-.56.36l-.01-.25v.25zm-.63-.98l.23.11-.23-.11zm.6-.93l-.2-.15.2.15zm.04-.05l-.18-.17.18.17zm.92-.98l-.18-.17.18.17zm.02-.01l-.18-.18.18.18zm1.7-.73l.01.25v-.25zm1.72.68l-.18.18.18-.18zm3.37 3.37l.18-.17-.18.17zm-.05 3.42l-.17-.18.17.18zM8.72 10.7l-.18-.17-.12.12.08.17.22-.12zm6.6 6.6l-.11.23.16.08.13-.13-.18-.18zm1.34-1.34l.18.18-.18-.18zm3.42-.04l.18-.18-.18.18zm3.37 3.36l.18-.17-.18.17zm-.04 3.43l-.18-.18.18.18zm0 0l.17.18-.18-.18zm-.97.95l-.17-.18.17.18zm-.23.14l-.1-.23-.02.01-.03.02.15.2zm-1.39.76l-.09-.23.1.23zm-1.57.4l.03.24-.03-.25zm0 0l.02.24-.03-.24zm1.39-12.04h-.25.25zm-7.56-7.56v-.25.25zm7.22 8.14l-.12-.22.12.22zm-.67 0l.12-.22-.12.22zm-.34-.58h.25-.25zM13.1 6.7v-.25.25zm-.52-5.46a12.2 12.2 0 0112.18 12.18h.5c0-7-5.68-12.67-12.68-12.68v.5zm-.42.42c0-.23.19-.42.42-.42v-.5c-.51 0-.92.41-.92.92h.5zm.42.42a.42.42 0 01-.42-.42h-.5c0 .51.4.92.92.92v-.5zM23.9 13.43c0-6.26-5.08-11.33-11.34-11.34v.5c5.98 0 10.83 4.86 10.84 10.84h.5zm.2.37a.42.42 0 01-.2-.37h-.5c0 .33.17.64.46.8l.25-.43zm.43 0a.42.42 0 01-.42 0l-.25.43c.28.16.63.16.92 0l-.25-.43zm.21-.37c0 .15-.08.3-.21.37l.25.43a.92.92 0 00.46-.8h-.5zm-9.39 11.2c1.1.37 2.24.57 3.4.6v-.5c-1.1-.03-2.2-.22-3.24-.57l-.16.47zM6.9 19.12a21.47 21.47 0 008.47 5.51l.17-.47a20.97 20.97 0 01-8.27-5.38l-.37.34zM.75 8.1c.04 3.5 1.92 6.8 6.15 11.02l.35-.35c-4.2-4.2-5.96-7.38-6-10.68l-.5.01zm.26-.65a.92.92 0 00-.26.65h.5c0-.12.04-.22.12-.3l-.36-.35zm.65-.28c-.24 0-.48.1-.65.28l.36.35a.42.42 0 01.3-.13l-.01-.5zm.01 0v.5-.5zm.92.9c0-.5-.41-.9-.92-.9v.5c.23 0 .42.18.42.41h.5zm5.6 9.75c-3.92-3.93-5.56-6.84-5.6-9.74h-.5c.04 3.11 1.8 6.14 5.76 10.1l.35-.36zm10.88 5.55c-.18.02-4.89.44-10.87-5.55l-.35.36c6.1 6.1 10.96 5.72 11.27 5.7l-.05-.5zm1.17-.3c-.37.16-.77.26-1.17.3l.06.5c.44-.05.88-.16 1.3-.33l-.19-.46zm1.14-.64c-.34.27-.73.49-1.14.65l.18.46c.46-.17.88-.41 1.27-.71l-.3-.4zm.14-.09a.96.96 0 00-.14.1l.31.39a.46.46 0 01.06-.04l-.23-.45zm.76-.76l-.82.8.35.36.82-.8-.35-.36zm.04-1.18c.31.34.3.86-.03 1.18l.34.36c.53-.5.55-1.34.05-1.88l-.36.34zm-3.36-3.36l3.36 3.37.36-.35-3.37-3.37-.35.35zm-1.17.05a.83.83 0 011.18-.04l.34-.37a1.33 1.33 0 00-1.88.06l.36.35zm-1.7 1.7l1.7-1.7-.36-.35-1.7 1.7.36.35zm-1.1.15c.37.2.81.14 1.1-.15l-.35-.36a.42.42 0 01-.5.07l-.24.44zm-.33-.19l.34.2.24-.45-.34-.18-.24.43zm-7.4-7.4a16.8 16.8 0 007.4 7.4l.23-.44a16.3 16.3 0 01-7.18-7.18l-.44.23zm-.02-.04l.03.06.44-.25-.04-.06-.43.25zm-.15-.27l.15.26.43-.24-.15-.27-.43.25zm.15-1.1c-.3.29-.36.74-.15 1.1l.43-.25a.42.42 0 01.07-.5l-.35-.36zm1.7-1.7l-1.7 1.7.35.35 1.7-1.7-.35-.35zm.03-1.18c.32.33.3.86-.03 1.17l.34.37c.54-.5.56-1.35.06-1.88l-.37.34zM5.61 3.7l3.37 3.37.35-.36-3.36-3.36-.36.35zm-.55-.22c.2 0 .4.07.56.22l.35-.36a1.26 1.26 0 00-.93-.36l.02.5zm-.61.26a.89.89 0 01.6-.26v-.5c-.36 0-.7.15-.95.4l.35.36zm-.89.94l.9-.95-.37-.34-.9.95.37.34zm-.4.64c.12-.23.26-.45.42-.66l-.4-.3c-.18.23-.33.48-.47.73l.45.23zm-.78.5c.33-.02.62-.2.78-.5L2.7 5.1a.42.42 0 01-.35.23l.02.5zm-.82-.43c.18.28.49.44.82.43l-.02-.5a.42.42 0 01-.38-.2l-.42.27zm-.04-.92c-.15.3-.13.65.04.92l.42-.27a.42.42 0 01-.01-.42l-.45-.23zm.62-.96c-.23.3-.44.62-.62.96l.45.23c.16-.31.35-.6.57-.89l-.4-.3zm.06-.07a.97.97 0 00-.06.07l.4.3.02-.03-.36-.34zm.92-.98l-.92.98.36.35.92-.98-.36-.35zm.02-.01l-.02.01.36.35.02-.02-.36-.34zm1.88-.81c-.7.01-1.38.3-1.88.8l.35.36c.41-.41.96-.65 1.54-.66v-.5zm1.9.76c-.5-.5-1.2-.78-1.9-.76l.01.5c.57-.02 1.13.2 1.53.61l.36-.35zm3.36 3.36L6.92 2.4l-.36.35 3.37 3.37.35-.36zm-.04 3.78a2.68 2.68 0 00.05-3.77l-.36.34c.83.86.81 2.24-.04 3.07l.35.36zM8.9 10.88l1.34-1.34-.36-.35-1.34 1.34.36.35zm6.54 6.2a14.88 14.88 0 01-6.5-6.5l-.44.24a15.38 15.38 0 006.71 6.7l.23-.44zm1.05-1.3l-1.34 1.35.35.35 1.34-1.34-.35-.35zm3.77-.04a2.68 2.68 0 00-3.78.05l.36.35c.84-.86 2.21-.88 3.07-.04l.35-.36zm3.37 3.37l-3.37-3.37-.35.35 3.36 3.37.36-.35zm-.05 3.78a2.68 2.68 0 00.05-3.78l-.36.35c.84.86.82 2.23-.04 3.07l.35.36zm0 0l-.35-.36.35.36zm-.96.94l.96-.94-.35-.35-.96.94.35.35zm-.32.2a.92.92 0 00.32-.2l-.35-.35a.42.42 0 01-.15.09l.18.47zm-1.39.76c.51-.2 1-.46 1.44-.78l-.29-.4c-.41.3-.86.53-1.33.72l.18.46zm-1.63.41a6.6 6.6 0 001.63-.4l-.18-.47c-.48.19-.99.32-1.5.38l.05.5zm0 0l-.05-.5h-.01l.05.5zm-.52.03c.17 0 .34 0 .5-.03l-.04-.5c-.15.02-.3.03-.46.03v.5zm2.13-12.31c0-4.31-3.5-7.8-7.8-7.8v.5c4.02 0 7.3 3.27 7.3 7.3h.5zm-.46.8a.92.92 0 00.46-.8h-.5c0 .15-.08.29-.21.36l.25.44zm-.93 0c.29.16.64.16.93 0l-.25-.44a.42.42 0 01-.43 0l-.25.44zm-.46-.8c0 .33.18.63.46.8l.25-.44a.42.42 0 01-.2-.36h-.5zm-5.96-5.96a5.97 5.97 0 015.96 5.96h.5c0-3.57-2.89-6.46-6.46-6.46v.5zm-.92-.92c0 .5.41.92.92.92v-.5a.42.42 0 01-.42-.42h-.5zm.92-.93c-.5 0-.92.42-.92.93h.5c0-.24.2-.43.42-.43v-.5z" fill="#F9572E"/></svg>