<svg version="1.1" id="svg996" xmlns="http://www.w3.org/2000/svg" x="0" y="0" viewBox="0 0 256 256" xml:space="preserve"><style>.st0{fill:none;stroke:#f9572e;stroke-width:16;stroke-miterlimit:15.1181}</style><g id="layer1" transform="translate(0 -229.26665)"><g id="XMLID_1_"><path class="st0" d="M174.8 246.7c10.1 4.3 19.6 9.9 28.1 16.7M246.3 337.3c1.1 6.5 1.7 13.2 1.7 20 0 66.3-53.7 120-120 120S8 423.5 8 357.3s53.7-120 120-120c7.1 0 14.1.6 20.8 1.8M221.7 282.3c7 8.7 12.8 18.4 17.1 28.9"/></g></g><path d="M110.3 128c0 11.2 9 20.3 20 20.3 7.8 0 14.4-4.5 17.8-11.1l.1.1 36.6-66.7-64.2 39.8.1.1c-6.2 3.4-10.4 9.9-10.4 17.5z" fill="#f9572e"/></svg>