<svg version="1.1" id="Слой_1" xmlns="http://www.w3.org/2000/svg" x="0" y="0" viewBox="0 0 51 153" xml:space="preserve"><style>.st1{fill:#fff}</style><path fill="#f9572e" d="M0 102h51v51H0z"/><path class="st1" d="M41.2 134.4c0-.1-.1-.1-.1-.2-.8-1.2-1.8-2.4-2.9-3.3-.6-.6-1.1-1-1.2-1.2-.3-.3-.4-.8-.2-1.2.4-.7.8-1.4 1.4-2 .4-.5.7-1 1-1.3 1.7-2.3 2.5-3.8 2.3-4.4l-.1-.2c-.1-.1-.3-.2-.5-.2-.3-.1-.6-.1-1 0h-5.1c-.1 0-.1.1-.2.2s-.1.2-.2.3c-.5 1.2-1 2.3-1.6 3.4-.4.6-.7 1.2-1 1.6-.2.4-.5.7-.8 1-.2.2-.4.4-.6.5-.2.1-.3.2-.4.2-.1 0-.2 0-.3-.1-.1-.1-.3-.2-.3-.4-.1-.2-.2-.4-.2-.6 0-.2 0-.4-.1-.6v-.7-.6-1.2-1.1-.8c0-.2 0-.5-.1-.7 0-.2-.1-.3-.2-.5-.1-.1-.2-.3-.3-.4-.2-.1-.3-.2-.5-.2-.7-.1-1.4-.2-2-.2-1.2-.1-2.4 0-3.6.4-.2.1-.4.3-.6.5-.2.2-.2.3-.1.4.5 0 1 .3 1.3.6l.1.2c.1.2.2.5.2.7.1.4.1.7.1 1.1.1.6.1 1.3 0 1.9 0 .5-.1.9-.1 1.2 0 .2-.1.5-.2.7-.1.1-.1.2-.2.3 0 0 0 .1-.1.1-.1.1-.3.1-.4.1-.2 0-.4-.1-.5-.2l-.6-.6c-.3-.3-.5-.7-.7-1-.3-.4-.6-1-.8-1.6l-.2-.4c-.2-.3-.4-.7-.6-1.2-.3-.5-.5-1.1-.7-1.6-.1-.2-.2-.4-.4-.5h-.1c-.1-.1-.2-.1-.2-.1-.1 0-.2-.1-.3-.1h-4.1c-.3 0-.6.1-.9.3l-.1.1c0 .1-.1.2 0 .2 0 .1 0 .3.1.4.6 1.4 1.3 2.8 2 4.1.7 1.3 1.3 2.4 1.9 3.2.5.8 1.1 1.6 1.6 2.3.5.7.9 1.2 1.1 1.4.2.2.3.4.4.5l.4.4c.3.3.7.6 1.1.9.5.4 1 .7 1.6 1 .6.4 1.3.6 2 .8.7.2 1.5.3 2.2.2h1.7c.3 0 .6-.1.8-.3l.1-.1c.1-.1.1-.2.1-.3 0-.1.1-.3.1-.4 0-.4 0-.8.1-1.2.1-.3.1-.5.3-.8.1-.2.2-.3.3-.4.1-.1.2-.2.3-.2 0 0 .1 0 .1-.1.3-.1.6 0 .9.2.3.3.7.5.9.9.3.3.6.7 1 1.2.3.4.7.7 1.1 1l.3.2c.2.1.5.3.8.3.3.1.6.1.8.1l3.9-.1c.3 0 .6 0 .9-.2.2-.1.3-.2.4-.4v-.5c-.2-.5-.2-.6-.3-.7z"/><path fill="#33b5a3" d="M0 0h51v51H0z"/><path class="st1" d="M41.2 32.4c0-.1-.1-.1-.1-.2-.8-1.2-1.8-2.4-2.9-3.3-.6-.6-1.1-1-1.2-1.2-.3-.3-.4-.8-.2-1.2.4-.7.8-1.4 1.4-2 .4-.5.7-1 1-1.3 1.7-2.3 2.5-3.8 2.3-4.4l-.1-.2c-.1-.1-.3-.2-.5-.2-.3-.1-.6-.1-1 0h-5.1c-.1 0-.1.1-.2.2s-.1.2-.2.3c-.5 1.2-1 2.3-1.6 3.4-.4.6-.7 1.2-1 1.6-.2.4-.5.7-.8 1-.2.2-.4.4-.6.5-.2.1-.3.2-.4.2-.1 0-.2 0-.3-.1-.1-.1-.3-.2-.3-.4-.1-.2-.2-.4-.2-.6 0-.2 0-.4-.1-.6v-.7-.6-1.2-1.1-.8c0-.2 0-.5-.1-.7 0-.2-.1-.3-.2-.5-.1-.1-.2-.3-.3-.4-.2-.1-.3-.2-.5-.2-.7-.1-1.4-.2-2-.2-1.2-.1-2.4 0-3.6.4-.2.1-.4.3-.6.5-.2.2-.2.3-.1.4.5 0 1 .3 1.3.6l.1.2c.1.2.2.5.2.7.1.4.1.7.1 1.1.1.6.1 1.3 0 1.9 0 .5-.1.9-.1 1.2 0 .2-.1.5-.2.7-.1.1-.1.2-.2.3 0 0 0 .1-.1.1-.1.1-.3.1-.4.1-.2 0-.4-.1-.5-.2l-.6-.6c-.3-.3-.5-.7-.7-1-.3-.4-.6-1-.8-1.6l-.2-.4c-.2-.3-.4-.7-.6-1.2-.3-.5-.5-1.1-.7-1.6-.1-.2-.2-.4-.4-.5h-.1c-.1-.1-.2-.1-.2-.1-.1 0-.2-.1-.3-.1h-4.1c-.3 0-.6.1-.9.3l-.1.1c0 .1-.1.2 0 .2 0 .1 0 .3.1.4.6 1.4 1.3 2.8 2 4.1.7 1.3 1.3 2.4 1.9 3.2.5.8 1.1 1.6 1.6 2.3.5.7.9 1.2 1.1 1.4.2.2.3.4.4.5l.4.4c.3.3.7.6 1.1.9.5.4 1 .7 1.6 1 .6.4 1.3.6 2 .8.7.2 1.5.3 2.2.2h1.7c.3 0 .6-.1.8-.3l.1-.1c.1-.1.1-.2.1-.3 0-.1.1-.3.1-.4 0-.4 0-.8.1-1.2.1-.3.1-.5.3-.8.1-.2.2-.3.3-.4.1-.1.2-.2.3-.2 0 0 .1 0 .1-.1.3-.1.6 0 .9.2.3.3.7.5.9.9.3.3.6.7 1 1.2.3.4.7.7 1.1 1l.3.2c.2.1.5.3.8.3.3.1.6.1.8.1l3.9-.1c.3 0 .6 0 .9-.2.2-.1.3-.2.4-.4v-.5c-.2-.5-.2-.6-.3-.7z"/></svg>